<svg id="Layer_1" data-name="Layer 1" xmlns="http://www.w3.org/2000/svg" viewBox="0 0 205.27 205.27"><defs><style>.cls-1{fill:#ff6565;}</style></defs><path class="cls-1" d="M127.84,131.64s-15.2,29.21-48.61,29.21c-31,0-42.22-21.8-42.22-43,0-44.42,36.41-73.63,69.63-73.63,30,0,33.61,23.41,33.61,23.41L156.05,47h13.61l-20.61,92c-1,4.6-.4,8.6,4,8.6,3.8,0,8-2,14.4-6.6,13.81-10,27.61-28.41,27.61-52.42,0-49.82-41-78.43-88.22-78.43-47.42,0-93,38.62-93,92.83,0,56.62,38.82,92.23,95.84,92.23,29,0,58.62-13.4,74.22-35.41h12.6c-20,28.81-51,45.42-89,45.42-64,0-107.44-40.82-107.44-100C0,42.81,45.61,0,109,0c50.41,0,96.23,34.21,96.23,84.23,0,54.22-41.22,73.82-58.82,73.82C132,158.05,127.84,151.45,127.84,131.64Zm8-29c5.81-22-2.4-40.61-26.4-40.61C85.83,62,63,82.83,63,113.64c0,16,9.2,29.41,27.81,29.41C111.84,143.05,129.84,124.64,135.84,102.63Z"/></svg>