<svg xmlns="http://www.w3.org/2000/svg" xmlns:xlink="http://www.w3.org/1999/xlink" version="1.1" id="Layer_1" x="0px" y="0px" style="enable-background:new 0 0 800 800;" xml:space="preserve" viewBox="129.82 346.55 540.37 106.94">
<style type="text/css">
	.st0{fill:#FF6565;}
	.st1{fill:#FE6565;}
	.st2{clip-path:url(#SVGID_00000014624082631417929760000015727956832400555450_);}
	.st3{fill:none;}
	.st4{fill:none;stroke:#FE6565;stroke-width:9.4527;}
	.st5{opacity:0.559;}
	.st6{opacity:0.559;fill:#FF6565;enable-background:new    ;}
	.st7{clip-path:url(#SVGID_00000015346435239529835250000010813733945230122883_);}
	.st8{clip-path:url(#SVGID_00000110473043906427149370000010826803761247338894_);}
	.st9{opacity:0.5;}
	.st10{clip-path:url(#SVGID_00000109740184473286994240000005107471865360702397_);}
</style>
<g>
	<g>
		<path class="st0" d="M180.47,346.55c-8.26,0-16.08,1.88-21.88,5.5c-3.47,2.03-6.23,4.64-8.4,7.82c-2.17,3.48-3.62,7.53-4.06,12.02    c-0.58,5.22,0.72,10,3.77,14.2c2.76,3.91,6.81,7.24,10.58,10.43c8.69,7.25,17.67,14.78,14.92,29.7    c-1.16,6.96-4.06,11.88-8.4,14.92c-3.77,2.75-7.68,3.05-9.28,3.05c-2.46,0-5.36-1.45-7.24-3.77c-2.32-2.9-3.34-6.66-2.61-10.86    c0.73-3.62,2.75-7.1,4.63-9.99c1.89-3.19,3.34-5.65,2.46-7.39c-0.87-1.45-3.77-2.17-9.13-2.17c-5.07,0-8.54,1.74-11.15,5.36    c-2.03,2.9-3.47,7.24-4.63,14.19c-0.87,4.93,0.73,10.28,4.34,14.63c2.32,2.75,5.37,5.07,9.13,6.66c4.2,1.74,9.27,2.6,14.78,2.6    c12.74,0,21.44-2.31,27.23-7.39c5.21-4.63,8.11-11.73,9.13-22.31c0.58-7.1-1.3-13.47-5.79-19.41c-3.91-5.21-9.27-9.27-14.34-13.33    c-7.68-6.09-14.34-11.3-13.47-18.4c0.87-6.81,4.49-10.72,7.25-13.04c3.77-2.9,7.82-3.91,10.29-3.91c1.74,0,2.9,0.43,3.77,1.45    c1.45,1.74,1.01,5.07,0.58,8.26c-0.43,3.04-0.72,5.79,0.43,7.24c0.58,0.58,1.45,0.87,2.46,0.87c8.41,0,12.17-2.46,13.33-8.98    c0.58-3.91-0.58-7.82-3.33-11.16C192.21,349.15,186.56,346.55,180.47,346.55z"/>
		<path class="st0" d="M301.59,374.79c-5.65,0-8.54,1.16-11.59,3.77c-3.77,3.19-6.09,7.97-9.99,14.05c0.29-1.59,0.43-3.04,0.58-4.35    c0.43-3.48-1.3-6.37-5.36-8.4c-2.9-1.45-5.94-1.89-6.23-1.89c0,0-0.58-0.29-1.3-0.29c-1.01,0-2.32,0.43-2.32,2.46    c0,4.2-3.62,19.13-7.24,33.47c-1.93,7.49-3.85,15.11-5.27,21.41c-1.91,2.32-4.06,4.22-6.47,5.68c-4.63,2.9-10.14,4.2-17.09,4.2    c-4.06,0-7.1-1.16-9.27-3.77c-2.31-2.75-3.47-7.1-3.47-13.03c0-1.89,0.14-4.06,0.29-6.52c12.03-1.59,20.72-7.24,25.93-11.73    c5.79-4.93,9.42-10.43,9.42-12.75c0-6.95-2.9-12.02-8.54-15.07c-4.78-2.46-10.29-2.75-13.18-2.75H228    c-5.51,0-12.46,5.36-18.11,14.05c-6.09,9.42-9.71,21.01-9.71,31.73c0,9.85,2.75,17.38,7.97,22.31c5.51,5.07,12.31,6.08,16.95,6.08    c11.89,0,20.01-3.3,25.71-7.86c-0.13,1.01-0.21,1.86-0.21,2.5c0,0,0,1.16,1.16,2.46c2.32,2.32,6.81,2.9,10.29,2.9h0.29    c0.43,0,1.89-0.14,3.19-1.74c1.88-2.03,3.04-5.36,3.62-10.14c0.87-6.08,3.04-14.92,5.36-24.48c0.43-1.88,0.87-3.77,1.44-5.8    c4.06-7.53,8.41-13.47,11.88-19.12c3.47-5.65,6.23-9.56,8.98-9.56c0.72,0,1.16,0.29,1.45,0.73c1.74,2.46-1.45,10.87-4.2,18.25    c-1.89,4.78-3.33,8.84-3.33,10.72c0,3.04,5.22,5.65,9.56,5.65c1.89,0,3.48-0.58,4.63-1.45c1.31-1.01,2.03-2.61,2.03-4.78    c0-5.79,1.74-11.3,3.19-16.08c1.16-3.62,2.17-6.66,2.17-9.12c0-2.18-0.43-5.36-2.31-7.97    C308.26,376.1,305.36,374.79,301.59,374.79z M222.64,395.95c2.61-6.52,5.79-9.85,9.27-9.85c4.2,0,5.94,2.61,5.94,8.98    c0,2.9-1.15,7.54-6.37,12.6c-3.62,3.48-8.69,6.52-13.91,8.11C218.73,408.11,220.46,401.01,222.64,395.95z"/>
		<path class="st0" d="M377.36,375.81c-0.43,0-0.72,0-1.16,0h-1.74c-1.3,0-1.88,0.87-2.75,2.46c0,0.14-0.15,0.29-0.15,0.43    c-2.46,4.49-6.23,13.62-10.14,23.18c-5.07,12.32-10.72,26.22-15.07,33.75c-2.17-8.26-4.2-19.85-6.09-29.99    c-1.45-7.53-2.75-14.49-3.77-18.69c-1.01-4.35-3.19-7.53-6.52-9.42c-2.6-1.45-5.36-1.74-7.24-1.74c-1.02,0-1.74,0.14-1.74,0.14    c-2.03,0-4.35,0.15-5.36,1.74c-0.87,1.59-0.29,4.35,1.74,8.11c1.74,3.04,3.18,13.62,4.49,24.92c1.3,9.56,2.46,19.41,4.06,25.64    c1.59,6.08,4.64,10.72,9.13,13.76c4.49,3.04,8.98,3.33,10.72,3.33c0.14,0,0.29,0,0.43,0h0.58c2.32,0,4.78-0.14,4.92-2.46    c0.43-1.16,29.26-63.3,29.26-73.01C380.99,375.95,379.54,375.81,377.36,375.81z"/>
		<path class="st0" d="M388.38,355.67c0,2.32,1.02,4.78,2.9,6.66c2.03,2.03,4.49,3.19,7.1,3.48h1.16c2.46,0,4.78-0.72,6.38-2.32    c1.59-1.45,2.61-3.48,2.61-5.79c0-5.07-4.49-9.56-10.14-10.14c-0.29-0.14-0.87-0.14-1.45-0.29c-2.17-0.29-5.22-0.58-7.68-0.58    c-2.46,0-3.62,0.29-3.62,1.16c0,2.03,0.72,2.75,1.3,3.48C387.66,352.19,388.38,353.06,388.38,355.67z"/>
		<path class="st0" d="M570.64,386.53c0-2.18-0.43-5.36-2.32-7.97c-1.74-2.46-4.63-3.77-8.4-3.77c-5.65,0-8.55,1.16-11.59,3.77    c-3.77,3.19-6.09,7.97-10,14.05c0.29-1.59,0.44-3.04,0.58-4.35c0.43-3.48-1.3-6.37-5.36-8.4c-2.9-1.45-5.94-1.89-6.23-1.89    c0,0-0.58-0.29-1.3-0.29c-1.02,0-2.32,0.43-2.32,2.46c0,4.2-3.62,19.13-7.25,33.47c-1.79,6.96-3.58,14.04-4.96,20.06    c-2.16,2.94-4.65,5.3-7.5,7.03c-4.64,2.9-10.14,4.2-17.1,4.2c-4.06,0-7.1-1.16-9.27-3.77c-2.32-2.75-3.48-7.1-3.48-13.03    c0-1.89,0.15-4.06,0.29-6.52c12.02-1.59,20.71-7.24,25.93-11.73c5.79-4.93,9.42-10.43,9.42-12.75c0-6.95-2.9-12.02-8.55-15.07    c-4.78-2.46-10.29-2.75-13.18-2.75h-2.46c-5.5,0-12.46,5.36-18.11,14.05c-6.09,9.42-9.7,21.01-9.7,31.73    c0,3.55,0.37,6.78,1.07,9.71c-5.89,6.78-14.08,10.14-24.83,10.14c-4.06,0-7.54-1.31-10-3.77c-2.9-2.9-4.34-7.24-4.34-13.03    c0-12.61,6.37-42.01,15.21-42.01c1.88,0,3.19,0.43,4.06,1.45c1.44,1.74,1.01,4.93,0.72,7.53c-0.14,1.01-0.29,1.88-0.29,2.61    c0,2.61,3.62,4.78,7.67,4.78c2.03,0,8.55-0.72,8.55-9.85c0-5.36-3.47-9.13-10.28-11.3c-5.21-1.74-11.16-2.03-13.33-2.03h-0.87    c-5.65,0-12.61,5.36-18.11,14.05c-6.23,9.42-9.71,21.01-9.71,31.73c0,3.73,0.48,7.22,1.36,10.31c-0.57,0.77-1.17,1.9-1.8,3.17    c-2.03,3.91-4.93,9.27-9.99,9.27c-0.43,0-0.87-0.14-1.16-0.58c-2.9-3.77,2.18-23.32,6.23-39.11c2.32-9.13,4.35-16.95,4.35-19.85    c0-3.48-2.03-6.37-5.79-8.4c-2.9-1.45-5.79-1.89-5.79-1.89s-0.73-0.29-1.45-0.29c-1.01,0-2.31,0.43-2.31,2.46    c0,4.2-3.05,15.65-6.09,26.66c-3.19,11.15-6.38,22.89-6.38,27.38c0,4.64,1.74,9.41,4.78,13.04c2.32,2.75,6.66,6.23,13.76,6.23    c6.52,0,10.72-3.19,13.18-5.94c1.14-1.26,2-2.55,2.64-3.73c0.99,1.28,2.08,2.48,3.31,3.58c4.63,3.91,10.86,6.08,17.82,6.08    c11.15,0,20.42-2.9,27.38-8.69c1.33-1.14,2.58-2.38,3.77-3.71c1.22,2.43,2.76,4.55,4.64,6.32c5.5,5.07,12.32,6.08,16.95,6.08    c12.49,0,20.8-3.66,26.54-8.57c-0.2,1.33-0.31,2.43-0.31,3.21c0,0,0,1.16,1.16,2.46c2.32,2.32,6.81,2.9,10.29,2.9h0.29    c0.43,0,1.88-0.14,3.18-1.74c1.89-2.03,3.05-5.36,3.62-10.14c0.87-6.08,3.04-14.92,5.36-24.48c0.43-1.88,0.87-3.77,1.45-5.8    c4.05-7.53,8.4-13.47,11.87-19.12c3.48-5.65,6.23-9.56,8.98-9.56c0.72,0,1.16,0.29,1.45,0.73c1.74,2.46-1.45,10.87-4.2,18.25    c-1.89,4.78-3.34,8.84-3.34,10.72c0,3.04,5.22,5.65,9.57,5.65c1.88,0,3.47-0.58,4.63-1.45c1.3-1.01,2.03-2.61,2.03-4.78    c0-5.79,1.74-11.3,3.19-16.08C569.63,392.03,570.64,388.99,570.64,386.53z M480.24,395.95c2.61-6.52,5.8-9.85,9.27-9.85    c4.2,0,5.94,2.61,5.94,8.98c0,2.9-1.16,7.54-6.38,12.6c-3.62,3.48-8.69,6.52-13.9,8.11C476.33,408.11,478.07,401.01,480.24,395.95    z"/>
		<path class="st0" d="M580.5,355.67c0,2.32,1.01,4.78,2.9,6.66c2.03,2.03,4.49,3.19,7.1,3.48h1.16c2.46,0,4.78-0.72,6.37-2.32    c1.59-1.45,2.61-3.48,2.61-5.79c0-5.07-4.49-9.56-10.14-10.14c-0.29-0.14-0.87-0.14-1.45-0.29c-2.17-0.29-5.21-0.58-7.67-0.58    c-2.46,0-3.62,0.29-3.62,1.16c0,2.03,0.73,2.75,1.3,3.48C579.77,352.19,580.5,353.06,580.5,355.67z"/>
		<path class="st0" d="M669.01,436.22c-0.72-1.16-1.88-1.88-3.18-1.88c-1.02,0-1.89,1.88-3.19,4.2c-2.03,3.91-4.78,9.27-9.85,9.27    c-0.43,0-0.87-0.14-1.16-0.58c-2.9-3.77,2.03-23.32,6.09-39.11c2.32-9.13,4.35-16.95,4.35-19.85c0-3.48-2.03-6.37-5.79-8.4    c-2.9-1.45-5.8-1.89-5.8-1.89s-0.58-0.29-1.45-0.29c-1.01,0-2.17,0.43-2.17,2.46c0,4.2-3.19,15.65-6.23,26.66    c-3.05,11.15-6.23,22.89-6.23,27.38c0,1.31,0.15,2.61,0.44,4.06c-3.62,4.49-7.39,6.67-11.16,6.67c-2.9,0-5.64-1.31-7.67-3.77    c-2.46-2.9-3.62-7.39-3.62-13.03c0-12.61,6.37-42.01,15.21-42.01c4.34,0,5.65,3.77,6.66,6.81c0.72,2.17,1.45,4.06,2.9,4.06    c3.76,0,3.91-1.45,4.06-1.59c0-4.2-1.74-8.11-4.93-11.15c-3.33-3.19-7.68-4.93-12.46-4.93c-5.65,0-12.61,5.36-18.11,14.05    c-6.23,9.42-9.71,21.01-9.71,31.73c0,3.61,0.4,6.88,1.18,9.84c-0.7,0.72-1.41,2.07-2.19,3.64c-2.03,3.91-4.93,9.27-9.99,9.27    c-0.43,0-0.88-0.14-1.16-0.58c-2.9-3.77,2.17-23.32,6.23-39.11c2.32-9.13,4.34-16.95,4.34-19.85c0-3.48-2.02-6.37-5.79-8.4    c-2.9-1.45-5.8-1.89-5.8-1.89s-0.72-0.29-1.45-0.29c-1.02,0-2.32,0.43-2.32,2.46c0,4.2-3.04,15.65-6.09,26.66    c-3.18,11.15-6.37,22.89-6.37,27.38c0,4.64,1.74,9.41,4.78,13.04c2.31,2.75,6.66,6.23,13.76,6.23c6.52,0,10.72-3.19,13.18-5.94    c1.26-1.38,2.17-2.81,2.82-4.08c1.03,1.43,2.21,2.75,3.56,3.93c4.49,3.91,10.87,6.08,17.97,6.08c5.79,0,11.15-2.46,15.65-7.24    c3.47,4.64,8.55,7.24,14.63,7.24c6.38,0,10.72-3.19,13.18-5.94c2.75-3.19,4.06-6.66,4.06-7.68    C670.17,438.68,669.74,437.23,669.01,436.22z"/>
	</g>
</g>
</svg>